<?xml version="1.0" standalone="no"?>
<!DOCTYPE svg PUBLIC "-//W3C//DTD SVG 20010904//EN"
 "http://www.w3.org/TR/2001/REC-SVG-20010904/DTD/svg10.dtd">
<svg version="1.0" xmlns="http://www.w3.org/2000/svg"
 width="1200.000000pt" height="1200.000000pt" viewBox="0 0 1200.000000 1200.000000"
 preserveAspectRatio="xMidYMid meet">
<metadata>
Created by potrace 1.14, written by Peter Selinger 2001-2017
</metadata>
<g transform="translate(0.000000,1200.000000) scale(0.100000,-0.100000)"
fill="#000000" stroke="none">
<path d="M5867 9544 c-1 -1 -51 -5 -112 -8 -60 -3 -121 -8 -135 -11 -14 -2
-50 -6 -80 -9 -30 -4 -66 -8 -80 -11 -14 -3 -38 -7 -55 -10 -103 -17 -155 -28
-261 -55 -550 -142 -1014 -380 -1432 -734 -180 -153 -411 -393 -520 -541 -160
-218 -237 -339 -341 -537 -53 -100 -188 -408 -196 -448 -2 -8 -15 -51 -29 -95
-14 -44 -30 -93 -35 -110 -17 -55 -60 -239 -75 -325 -24 -130 -25 -141 -31
-200 -4 -30 -8 -66 -10 -80 -22 -131 -22 -647 0 -755 2 -11 7 -42 10 -70 14
-118 34 -223 80 -425 2 -8 15 -55 30 -105 126 -432 323 -821 600 -1180 138
-180 333 -386 485 -515 36 -30 67 -57 70 -60 14 -16 252 -190 310 -227 344
-221 723 -386 1100 -478 89 -21 151 -34 230 -46 36 -5 76 -12 90 -14 14 -3 46
-7 71 -10 25 -3 56 -8 70 -10 44 -9 252 -18 392 -18 170 1 313 10 437 28 52 8
117 16 143 19 27 3 52 8 55 10 4 2 28 7 52 11 123 18 493 129 608 181 29 13
57 24 62 24 6 0 18 4 28 10 9 5 78 39 152 74 119 58 168 84 259 137 79 46 270
177 356 244 490 381 853 852 1101 1426 66 153 167 466 188 582 3 15 7 35 10
45 3 9 7 28 10 42 2 14 9 52 15 85 6 33 13 74 16 90 3 17 8 54 11 84 3 30 7
62 9 72 22 114 22 556 0 764 -13 123 -76 462 -90 484 -2 4 -6 18 -8 32 -19
102 -92 316 -175 509 -235 550 -654 1079 -1132 1429 -47 34 -92 68 -100 74
-134 107 -504 303 -751 398 -176 67 -469 150 -619 175 -14 2 -41 7 -60 10 -19
4 -44 8 -55 9 -11 2 -38 6 -60 9 -41 6 -99 12 -220 22 -64 6 -383 12 -388 8z
m491 -1361 c41 -20 58 -52 66 -123 4 -30 9 -66 11 -80 3 -14 7 -38 9 -55 5
-28 24 -144 31 -190 2 -11 6 -40 10 -65 3 -25 15 -99 25 -165 11 -66 33 -210
50 -320 17 -110 34 -213 36 -230 3 -16 7 -46 10 -65 4 -29 29 -190 50 -315 3
-16 7 -44 9 -61 3 -17 12 -76 20 -130 9 -55 18 -110 20 -124 2 -14 11 -70 20
-125 9 -55 18 -111 20 -125 2 -14 6 -42 9 -62 3 -21 8 -55 12 -75 3 -21 9 -63
14 -93 14 -81 18 -110 25 -160 3 -25 10 -67 15 -95 5 -27 12 -68 15 -90 3 -23
7 -52 10 -65 3 -14 7 -45 10 -70 3 -25 8 -58 11 -75 3 -16 7 -43 10 -60 3 -16
7 -37 9 -45 2 -8 6 -37 10 -65 3 -27 10 -77 16 -110 5 -33 12 -73 14 -90 2
-16 7 -46 10 -65 3 -19 8 -52 11 -74 3 -21 7 -48 10 -59 2 -12 6 -39 9 -62 4
-22 8 -51 10 -65 15 -91 35 -221 40 -255 3 -22 8 -51 10 -65 3 -14 8 -43 11
-65 3 -22 12 -76 19 -119 6 -44 11 -113 10 -154 -1 -65 -4 -77 -24 -93 -41
-34 -95 -40 -298 -37 l-195 3 -28 33 c-28 33 -55 105 -65 172 -3 19 -7 46 -10
60 -2 14 -7 59 -10 100 -3 41 -8 91 -10 110 -2 19 -7 64 -10 100 -4 36 -8 79
-10 95 -2 17 -6 64 -10 105 -4 41 -8 84 -10 95 -1 11 -6 56 -10 100 -4 44 -9
87 -11 95 -1 8 -3 29 -3 47 l-1 32 -185 0 c-136 -1 -190 3 -201 12 -12 10 -22
10 -52 -1 -22 -8 -79 -12 -149 -12 -80 1 -113 -3 -114 -11 0 -7 -2 -21 -4 -32
-2 -11 -7 -47 -10 -80 -3 -34 -8 -72 -10 -86 -4 -22 -7 -50 -21 -169 -3 -25
-7 -52 -9 -60 -2 -8 -7 -43 -10 -78 -4 -35 -8 -73 -11 -85 -2 -12 -6 -39 -9
-62 -3 -22 -8 -51 -10 -65 -3 -14 -7 -44 -10 -67 -9 -78 -45 -248 -61 -290
-15 -40 -20 -43 -71 -53 -32 -7 -126 -10 -236 -8 -200 3 -212 7 -248 66 -21
33 -21 31 -5 172 2 14 6 45 10 70 12 70 15 91 21 145 4 28 8 57 10 65 2 8 7
40 10 70 4 30 13 96 20 145 8 50 16 108 20 130 3 22 10 67 15 100 5 33 11 78
14 100 4 22 8 51 11 65 2 14 7 43 10 65 3 22 12 83 21 135 8 52 17 110 20 129
3 18 7 42 9 51 2 10 7 40 11 67 5 26 9 50 9 53 21 94 27 133 30 206 2 49 6
103 9 119 2 17 7 50 10 75 3 25 7 61 10 80 3 19 10 69 15 110 6 41 13 95 16
120 6 48 9 67 26 195 5 44 12 91 14 105 13 89 24 172 35 263 9 74 38 292 45
337 2 14 7 52 11 85 5 33 9 62 9 65 2 8 18 122 20 149 2 14 5 40 8 56 3 17 8
53 12 80 3 28 8 57 10 65 2 8 6 42 10 75 3 33 8 67 10 75 2 8 6 35 9 60 4 38
12 91 41 270 19 116 29 167 36 181 5 9 28 26 51 38 41 20 55 21 393 21 300 -1
355 -3 383 -17z"/>
<path d="M5945 7353 c-4 -43 -8 -86 -10 -96 -2 -10 -6 -46 -9 -80 -4 -34 -8
-75 -10 -92 -3 -16 -9 -75 -16 -130 -6 -55 -13 -111 -15 -125 -2 -14 -7 -54
-10 -90 -4 -36 -9 -72 -10 -80 -2 -8 -6 -46 -9 -85 -4 -38 -9 -77 -11 -85 -2
-8 -6 -42 -10 -75 -3 -33 -7 -75 -10 -93 -2 -18 -6 -49 -9 -70 -3 -20 -8 -62
-11 -92 -4 -30 -8 -66 -10 -80 -3 -14 -7 -50 -10 -80 -3 -30 -7 -66 -10 -80
-2 -14 -7 -50 -10 -80 -4 -30 -8 -65 -10 -78 -2 -12 -6 -50 -10 -85 -4 -34 -9
-71 -11 -82 -11 -56 -16 -145 -8 -146 5 -1 125 -3 266 -4 302 -3 275 -18 252
150 -8 60 -17 128 -20 150 -2 22 -7 51 -9 65 -2 14 -7 48 -10 75 -4 28 -8 66
-11 85 -2 19 -6 46 -9 60 -2 14 -7 44 -10 68 -9 76 -15 115 -35 262 -11 80
-23 163 -25 185 -3 22 -8 51 -10 65 -2 14 -7 44 -10 68 -3 23 -7 60 -10 82 -3
21 -7 52 -9 68 -2 16 -9 64 -15 108 -17 115 -20 137 -37 259 -28 209 -34 235
-54 235 -14 0 -19 -13 -25 -77z"/>
<path d="M6910 3991 c0 -5 7 -11 15 -15 8 -3 15 -1 15 3 0 5 -7 11 -15 15 -8
3 -15 1 -15 -3z"/>
</g>
</svg>
